<svg width="400" height="400" viewBox="0 0 400 400" fill="none" xmlns="http://www.w3.org/2000/svg">
<rect x="54" y="135.714" width="42.857" height="42.857" fill="#FFF005"/>
<rect x="139.714" y="50" width="42.857" height="42.857" fill="#C4C4C4"/>
<path d="M139.714 50L54 135.714H96.857L182.571 50H139.714Z" fill="#6A28EE"/>
<path d="M96.8569 135.714V178.571L182.571 92.857V50L96.8569 135.714Z" fill="#3B3049"/>
<rect x="54" y="221.427" width="42.857" height="42.857" fill="#FFF005"/>
<rect x="139.714" y="135.713" width="42.857" height="42.857" fill="#C4C4C4"/>
<path d="M139.714 135.713L54 221.427H96.857L182.571 135.713H139.714Z" fill="#6A28EE"/>
<path d="M96.8569 221.427V264.284L182.571 178.57V135.713L96.8569 221.427Z" fill="#3B3049"/>
<rect x="54" y="307.143" width="42.857" height="42.857" fill="#ED1C25"/>
<rect x="139.714" y="221.429" width="42.857" height="42.857" fill="#C4C4C4"/>
<path d="M139.714 221.429L54 307.143H96.857L182.571 221.429H139.714Z" fill="#6A28EE"/>
<path d="M96.8569 307.143V350L182.571 264.286V221.429L96.8569 307.143Z" fill="#3B3049"/>
<rect x="54" y="307.143" width="42.857" height="42.857" fill="#FFF005"/>
<rect x="139.714" y="221.429" width="42.857" height="42.857" fill="#C4C4C4"/>
<path d="M139.714 221.429L54 307.143H96.857L182.571 221.429H139.714Z" fill="#6A28EE"/>
<path d="M96.8569 307.143V350L182.571 264.286V221.429L96.8569 307.143Z" fill="#3B3049"/>
<rect x="139.714" y="135.714" width="42.857" height="42.857" fill="#FFF005"/>
<rect x="225.428" y="50" width="42.857" height="42.857" fill="#C4C4C4"/>
<path d="M225.428 50L139.714 135.714H182.571L268.285 50H225.428Z" fill="#6A28EE"/>
<path d="M182.571 135.714V178.571L268.285 92.857V50L182.571 135.714Z" fill="#3B3049"/>
<rect x="139.714" y="221.427" width="42.857" height="42.857" fill="#FFF005"/>
<rect x="225.428" y="135.713" width="42.857" height="42.857" fill="#C4C4C4"/>
<path d="M225.428 135.713L139.714 221.427H182.571L268.285 135.713H225.428Z" fill="#6A28EE"/>
<path d="M182.571 221.427V264.284L268.285 178.57V135.713L182.571 221.427Z" fill="#3B3049"/>
<rect x="139.714" y="307.143" width="42.857" height="42.857" fill="#ED1C25"/>
<rect x="225.428" y="221.429" width="42.857" height="42.857" fill="#C4C4C4"/>
<path d="M225.428 221.429L139.714 307.143H182.571L268.285 221.429H225.428Z" fill="#6A28EE"/>
<path d="M182.571 307.143V350L268.285 264.286V221.429L182.571 307.143Z" fill="#3B3049"/>
<rect x="139.714" y="307.143" width="42.857" height="42.857" fill="#FFF005"/>
<rect x="225.428" y="221.429" width="42.857" height="42.857" fill="#C4C4C4"/>
<path d="M225.428 221.429L139.714 307.143H182.571L268.285 221.429H225.428Z" fill="#6A28EE"/>
<path d="M182.571 307.143V350L268.285 264.286V221.429L182.571 307.143Z" fill="#3B3049"/>
<rect x="225.429" y="135.714" width="42.857" height="42.857" fill="#ED1C25"/>
<rect x="311.143" y="50" width="42.857" height="42.857" fill="#C4C4C4"/>
<path d="M311.143 50L225.429 135.714H268.286L354 50H311.143Z" fill="#6A28EE"/>
<path d="M268.286 135.714V178.571L354 92.857V50L268.286 135.714Z" fill="#3B3049"/>
<rect x="225.429" y="221.427" width="42.857" height="42.857" fill="#ED1C25"/>
<rect x="311.143" y="135.713" width="42.857" height="42.857" fill="#C4C4C4"/>
<path d="M311.143 135.713L225.429 221.427H268.286L354 135.713H311.143Z" fill="#6A28EE"/>
<path d="M268.286 221.427V264.284L354 178.57V135.713L268.286 221.427Z" fill="#3B3049"/>
<rect x="225.429" y="307.143" width="42.857" height="42.857" fill="#ED1C25"/>
<rect x="311.143" y="221.429" width="42.857" height="42.857" fill="#C4C4C4"/>
<path d="M311.143 221.429L225.429 307.143H268.286L354 221.429H311.143Z" fill="#6A28EE"/>
<path d="M268.286 307.143V350L354 264.286V221.429L268.286 307.143Z" fill="#3B3049"/>
<rect x="225.429" y="307.143" width="42.857" height="42.857" fill="#ED1C25"/>
<rect x="311.143" y="221.429" width="42.857" height="42.857" fill="#C4C4C4"/>
<path d="M311.143 221.429L225.429 307.143H268.286L354 221.429H311.143Z" fill="#6A28EE"/>
<path d="M268.286 307.143V350L354 264.286V221.429L268.286 307.143Z" fill="#3B3049"/>
</svg>
